<svg width="140" height="32" viewBox="0 0 140 32" fill="none" xmlns="http://www.w3.org/2000/svg" class="logo-0-1-10"><path fill-rule="evenodd" clip-rule="evenodd" d="M22.5791 22.936L25.6359 20.2566C27.3116 18.7875 27.4528 16.2676 25.9522 14.6279L22.8954 17.3073C21.219 18.7764 21.0777 21.2963 22.5791 22.936ZM17.444 25.5173C18.5704 25.5974 19.5495 24.7695 19.6314 23.6673C19.7133 22.5651 18.8672 21.607 17.7408 21.5268C16.6144 21.4467 15.6353 22.2746 15.5534 23.3768C15.4715 24.4783 16.3176 25.4372 17.444 25.5173ZM18.247 12.5972L11.1482 18.8201C12.6594 20.4701 15.251 20.6091 16.9372 19.1311L24.036 12.9083C22.5249 11.2583 19.9332 11.1193 18.247 12.5972ZM12.9083 8.4001L9.85153 11.0803C8.17585 12.5494 8.03458 15.0693 9.53518 16.709L12.5927 14.0296C14.2684 12.5604 14.4097 10.0406 12.9083 8.4001ZM17.7408 5.98532C16.6144 5.90517 15.6353 6.73386 15.5534 7.83533C15.4715 8.93755 16.3176 9.89564 17.444 9.97579C18.5704 10.0567 19.5495 9.22799 19.6314 8.12578C19.7133 7.0243 18.8672 6.06547 17.7408 5.98532ZM28.6106 2.66767L34.7566 13.0839C35.7304 14.7347 35.7304 16.7678 34.7566 18.4185L28.6106 28.8355C27.6368 30.4855 25.8371 31.5024 23.8894 31.5024H11.5975C9.64984 31.5024 7.85017 30.4855 6.87632 28.8355L0.730388 18.4185C-0.243463 16.7678 -0.243463 14.7347 0.730388 13.0839L6.87632 2.66767C7.85017 1.01692 9.64984 0 11.5975 0H23.8894C25.8371 0 27.6368 1.01692 28.6106 2.66767ZM46.5121 4.86629C43.8798 4.86629 41.9817 5.41262 40.5375 6.58542C39.3081 7.57219 38.6303 9.17147 38.6303 11.0877C38.6303 12.5847 39.0421 13.9369 39.7582 14.798C40.6329 15.8605 41.8592 16.5465 43.5049 16.8936L48.2344 17.7142C49.2668 17.9002 50.1257 18.248 50.5315 18.6451C51.0207 19.1237 51.2108 19.6443 51.2108 20.5024C51.2108 21.3782 50.7877 22.1546 49.9874 22.7488C49.2773 23.2767 48.0104 23.5797 46.5121 23.5797C44.744 23.4958 43.1622 22.8694 41.9487 21.7686L41.9381 21.7598L41.9269 21.7517C41.6368 21.5451 41.3776 21.301 41.1349 21.0039L40.9793 20.8135L40.796 20.9796L38.6747 22.9098L38.5064 23.0627L38.6619 23.2289C38.9768 23.565 39.4742 23.9767 40.1618 24.5451L40.3263 24.6811L40.3338 24.6878L40.3414 24.6929C42.1921 25.9826 44.2683 26.6356 46.5121 26.6356C48.7589 26.6356 50.6945 26.0701 52.2658 24.9554L52.2725 24.951L52.2785 24.9458C52.9653 24.3855 53.547 23.6466 53.9167 22.8642C54.2533 22.3576 54.4532 21.3789 54.4532 20.2392C54.4532 18.7149 53.9745 17.3723 53.1059 16.459C52.1891 15.5031 50.8636 14.8127 49.1669 14.4046L44.4051 13.4965C42.646 13.1575 41.754 12.2781 41.754 10.8825C41.754 10.1002 42.1801 9.31191 42.9233 8.71926C43.5905 8.20234 44.7207 7.89278 45.944 7.89278H45.9741C46.5977 7.89278 47.2763 7.94646 48.0164 8.33396C49.2075 8.94573 50.1851 9.68471 50.8448 10.4707L51.0034 10.6597L51.1845 10.4913L53.1562 8.64867L53.287 8.52735L53.1983 8.37293C52.8075 7.69719 52.2372 7.09057 51.4046 6.46336C49.9709 5.38835 48.3704 4.86629 46.5121 4.86629ZM56.1106 6.77544V7.00486V11.1696V13.7101V18.0233C56.1106 20.2285 57.0356 22.2873 58.7165 23.8197C60.3749 25.3329 62.5766 26.166 64.9158 26.166H65.1473V25.9395V23.4285V23.2013H64.9158C61.7283 23.2013 59.4086 21.1175 59.1403 18.0145L59.1689 13.9373H64.9158H65.1473V13.7101V11.1696V10.9431H64.9158H59.1704V7.03427V6.81L58.9412 6.8078L56.345 6.77839L56.1106 6.77544ZM75.8964 10.9431H75.6649C73.7488 10.9431 71.8988 11.6078 70.4027 12.824V11.1703V10.9431H70.1705H67.5743H67.3428V11.1703V25.7711V25.9983H67.5743H70.1705H70.4027V25.7711V18.0527C70.4027 16.8056 70.9392 15.7475 71.9536 14.9938C72.8974 14.2931 74.1869 13.9071 75.5838 13.9071L75.6619 13.9078L75.8964 13.91V13.6806V11.1703V10.9431ZM91.7773 10.8565H91.5451H88.8888H88.6574V11.083V20.1345C88.6574 22.3691 86.6916 23.386 84.8656 23.386C83.0765 23.386 81.1513 22.3963 81.1513 20.2235V11.083V10.8565H80.9199H78.3237H78.0915V11.083V21.2279C78.084 22.4404 78.5191 23.4889 79.3855 24.3426C80.6043 25.5434 82.667 26.2595 84.9032 26.2595C86.2047 26.2595 87.4806 26.014 88.5522 25.5625C87.8909 27.7382 85.5074 29.0647 83.5153 29.0647C82.4423 29.0647 81.4076 28.7544 80.6013 28.1912L80.448 28.0838L80.3097 28.2088L78.3778 29.9522L78.1764 30.1338L78.3928 30.2978C79.8551 31.411 81.6165 32 83.4853 32C87.9029 32 91.7773 28.5397 91.7773 24.5948V11.083V10.8565ZM97.1543 18.0643C97.4534 15.4231 99.6649 13.4334 102.303 13.4334C102.339 13.4334 102.375 13.4334 102.411 13.4341C104.197 13.4687 105.839 14.3481 106.803 15.7871C107.765 17.2209 107.91 19.0121 107.202 20.6996C106.623 22.0768 105.399 23.1268 103.926 23.5077C103.424 23.6371 102.916 23.7033 102.417 23.7033C99.7114 23.7033 97.4519 21.7518 97.1543 19.1621V18.0643ZM97.1543 5.56836H96.9221H94.3259H94.0944V5.79557V25.7714V25.9979H94.3259H96.9221H97.1543V25.7714V24.8325C98.6534 26.0009 100.493 26.6391 102.386 26.6391C106.958 26.6391 110.678 23.0258 110.678 18.5839C110.678 14.1714 106.96 10.5316 102.389 10.4706L102.387 10.4706C102.349 10.4698 102.311 10.4691 102.273 10.4691C100.409 10.4691 98.6098 11.1133 97.1543 12.2927V5.79557V5.56836ZM115.312 17.0867C116 14.9043 118.03 13.4043 120.346 13.4043L120.407 13.4051C122.743 13.458 124.763 14.9565 125.42 17.0867H115.312ZM120.274 10.4398H120.273C115.743 10.4398 112.058 14.0935 112.058 18.5839C112.058 23.0413 115.791 26.6678 120.38 26.6678C123.019 26.6678 125.516 25.4296 127.057 23.3546L127.185 23.1825L127.018 23.0472L125.056 21.4516L124.863 21.295L124.718 21.4957C123.726 22.8781 122.116 23.7038 120.41 23.7038C118.05 23.7038 115.996 22.2281 115.312 20.081H128.349H128.551L128.579 19.8862C128.64 19.4685 128.702 19.0413 128.702 18.5839C128.702 14.1545 124.97 10.5015 120.383 10.4405C120.346 10.4398 120.31 10.4398 120.274 10.4398ZM139.451 10.9431H139.219C137.303 10.9431 135.453 11.6078 133.956 12.824V11.1703V10.9431H133.725H131.129H130.896V11.1703V25.7711V25.9983H131.129H133.725H133.956V25.7711V18.0527C133.956 16.8056 134.493 15.7475 135.508 14.9938C136.452 14.2931 137.74 13.9071 139.138 13.9071L139.216 13.9078L139.451 13.91V13.6806V11.1703V10.9431Z" fill="#000000"></path></svg>
